<mxfile host="app.diagrams.net" modified="2024-04-22T18:55:47.113Z" agent="Mozilla/5.0 (Windows NT 10.0; Win64; x64) AppleWebKit/537.36 (KHTML, like Gecko) Chrome/124.0.0.0 Safari/537.36" version="24.2.8" etag="GhbBcXhofedSzQSh_guR" type="github">
  <diagram name="PÃ¡gina-1" id="dy7yCZ80aPA3F6ikmoLn">
    <mxGraphModel>
      <root>
        <mxCell id="0" />
        <mxCell id="1" parent="0" />
      </root>
    </mxGraphModel>
  </diagram>
</mxfile>
